<?xml version="1.0" standalone="no"?><!DOCTYPE svg PUBLIC "-//W3C//DTD SVG 1.1//EN" "http://www.w3.org/Graphics/SVG/1.1/DTD/svg11.dtd"><svg t="1764666914594" class="icon" viewBox="0 0 1024 1024" version="1.1" xmlns="http://www.w3.org/2000/svg" p-id="1990" xmlns:xlink="http://www.w3.org/1999/xlink" width="200" height="200"><path d="M979.622957 25.822609c0-8.325565-1.424696-15.270957-3.250087-21.504-35.528348-9.171478-81.697391 1.335652-120.787479 19.990261-8.058435 3.739826-27.024696 15.137391-55.073391 31.922087-11.575652 6.945391-21.949217 13.089391-26.490435 15.582608-0.445217 0.26713-0.712348 0.667826-1.113043 0.979478A511.020522 511.020522 0 0 0 510.096696 0C230.322087 0 2.637913 223.321043 2.637913 497.753043c0 92.070957 26.045217 178.086957 70.477913 251.948522C20.446609 829.261913-5.598609 886.784 1.213217 925.606957c1.424696 7.92487 15.449043 9.305043 23.062261 9.305043 156.716522 0 515.294609-337.474783 559.86087-380.527304C781.100522 364.410435 979.756522 132.229565 979.622957 25.822609zM433.92 358.444522C374.038261 358.444522 325.153391 310.53913 325.153391 251.814957c0-58.768696 48.88487-106.674087 108.766609-106.674087s108.722087 47.905391 108.722087 106.674087c0 58.857739-48.706783 106.629565-108.722087 106.629565zM951.574261 267.130435c-73.371826 110.636522-188.68313 243.622957-303.727304 358.578087-31.298783 31.387826-221.094957 218.245565-380.571827 317.751652 0.133565-0.133565 0.26713-0.133565 0.445218-0.267131A480.790261 480.790261 0 0 0 534.405565 1024c270.024348 0 489.73913-223.232 489.739131-497.530435 0-95.098435-26.802087-183.696696-72.570435-259.33913z" fill="#04c7d1" p-id="1991"></path></svg>