<?xml version="1.0" standalone="no"?><!DOCTYPE svg PUBLIC "-//W3C//DTD SVG 1.1//EN" "http://www.w3.org/Graphics/SVG/1.1/DTD/svg11.dtd"><svg t="1764666969977" class="icon" viewBox="0 0 1024 1024" version="1.1" xmlns="http://www.w3.org/2000/svg" p-id="3511" xmlns:xlink="http://www.w3.org/1999/xlink" width="200" height="200"><path d="M512.1 512.1m-342.8 0a342.8 342.8 0 1 0 685.6 0 342.8 342.8 0 1 0-685.6 0Z" fill="#75AFCC" p-id="3512"></path><path d="M960.1 512.1c0 247.4-200.6 448-448 448s-448-200.6-448-448 200.6-448 448-448 448 200.6 448 448z" fill="#F9A21D" p-id="3513"></path><path d="M621.9 589.6l-48.4-48.4c-2.4-2.3-6.2-2.4-8.6-0.1-17.9 16.8-36.7 31.1-55.3 42.7-2.8 1.7-3.7 5.3-2.2 8.1 8.1 15.5 14.3 30.7 18.3 45.2 0.9 3.1 3.9 5 7.1 4.4 32-6.1 62.7-20.4 88.8-42.9 2.7-2.3 2.9-6.4 0.3-9zM509.6 695.2v8.3c0 2.4 1.2 4.4 3.4 5.5 24.4 12.4 24.4 48.1 0 60.6-2.1 1.1-3.4 3.1-3.4 5.5v8.2c0 3.3 2.6 6 5.9 6.2 48.6 2.4 101.8 14.8 143.6 41.4 5.2 3.3 2.9 11.4-3.3 11.4H338.6c-6.2 0-8.5-8.1-3.3-11.4 41.8-26.6 95-39 143.6-41.4 3.3-0.2 5.9-2.9 5.9-6.2v-8.2c0-2.4-1.3-4.4-3.4-5.5-24.4-12.5-24.4-48.1 0-60.6 2.1-1.1 3.4-3.1 3.4-5.5v-8.3c0-3.2-2.5-5.9-5.7-6.2-49.8-3.9-98.7-23.6-138.3-59.1-2.4-2.2-6.2-2.1-8.5 0.2l-4.4 4.4c-1.9 1.9-2.4 4.6-1.2 7.1 6.1 12.7 3.9 28.4-6.6 38.9-13.3 13.3-34.9 13.3-48.3 0-13.3-13.3-13.3-34.9 0-48.3 10.5-10.5 26.2-12.7 38.9-6.6 2.4 1.2 5.1 0.7 7-1.2l26-26c2.3-2.3 2.4-6 0.3-8.4-70.8-80.2-67.8-202.8 8.9-279.5 79.6-79.7 201.9-77.1 279.5-8.9 2.5 2.2 6.1 2.1 8.5-0.3l25.7-25.7c1.9-1.9 2.4-4.6 1.2-7.1-6.1-12.7-3.9-28.4 6.6-38.9 13.3-13.3 34.9-13.3 48.3 0 13.3 13.3 13.3 34.9 0 48.3-10.5 10.5-26.2 12.8-38.9 6.6-2.4-1.2-5.2-0.7-7 1.2l-4.1 4.1c-2.3 2.3-2.4 6.1-0.2 8.5 82.7 92.2 79.7 234-8.9 322.6-41.3 41.3-94.1 64-148.1 68.1-3.4 0.3-5.9 3-5.9 6.2z m143.5-385.8l-2.1 2.1c-2.3 2.3-2.4 6-0.3 8.5 68.2 77.5 70.7 199.9-8.9 279.4-76.7 76.7-199.2 79.6-279.5 8.9-2.4-2.1-6.1-2-8.5 0.3l-2.1 2.1c-1.2 1.3-1.9 2.8-1.8 4.6 0.1 1.8 0.8 3.3 2.1 4.5 86.3 76.2 218.1 73.1 300.6-9.4 82.5-82.5 85.6-214.4 9.4-300.6-1.2-1.3-2.7-2-4.4-2.1-1.7-0.2-3.3 0.4-4.5 1.7z m26.5 173.9c-14.5-4.1-29.8-10.2-45.2-18.3-2.9-1.5-6.4-0.5-8.1 2.2-11.6 18.7-26 37.4-42.7 55.4-2.3 2.4-2.2 6.2 0.1 8.6l48.4 48.4c1.3 1.3 2.8 1.9 4.6 1.8 1.8-0.1 3.3-0.8 4.5-2.1 22.6-26.1 36.9-56.8 42.9-88.8 0.5-3.3-1.4-6.4-4.5-7.2z m-67.8-31.5c-17.6-11.2-35.1-24.9-52-40.6-2.4-2.3-6.2-2.2-8.6 0.1l-39.3 39.3c-2.4 2.4-2.4 6.3 0 8.8l52.9 52.9c1.2 1.3 2.8 1.8 4.5 1.8 1.8 0 3.2-0.7 4.4-2 15.7-16.8 29.1-34.3 40-51.8 1.8-2.9 0.9-6.7-1.9-8.5z m-70.7-59.2c-15.8-16.8-29.4-34.4-40.6-52-1.8-2.9-5.6-3.7-8.5-1.9-17.4 10.9-34.9 24.3-51.8 40-1.3 1.2-1.9 2.7-2 4.4 0 1.7 0.6 3.2 1.8 4.5l52.9 52.9c2.4 2.4 6.3 2.4 8.8 0l39.3-39.3c2.4-2.4 2.4-6.2 0.1-8.6zM487.4 318c-8.1-15.5-14.3-30.7-18.3-45.3-0.9-3.1-3.9-5-7.1-4.4-32 6-62.7 20.3-88.8 42.9-2.7 2.4-2.9 6.5-0.3 9l48.4 48.4c2.4 2.4 6.2 2.4 8.6 0.2 18-16.8 36.7-31.1 55.3-42.8 2.7-1.7 3.7-5.2 2.2-8z m154.3 134.7c12.8 6.7 25.4 11.9 37.4 15.6 3.9 1.2 7.8-1.6 8-5.6 1.3-33.6-6.2-67-21.9-96.7-1-1.9-3.8-1.2-3.9 0.9-0.7 26.5-10.3 54-22.3 77.5-1.4 3-0.3 6.7 2.7 8.3zM484 273.1c3.7 12 8.9 24.6 15.6 37.4 1.6 3 5.3 4.2 8.3 2.6 23.5-11.9 51-21.6 77.5-22.3 2.1-0.1 2.8-2.9 0.9-3.9-29.7-15.7-63.1-23.3-96.6-21.9-4.1 0.3-6.9 4.2-5.7 8.1z m29.4 61c10.5 16.2 23 32.4 37.6 48 2.4 2.6 6.4 2.6 8.9 0.2l60.8-60.8c1.4-1.4 2-3.3 1.7-5.3-0.3-2-1.5-3.6-3.3-4.5-30-15.1-73.6-1-103.3 13.6-3.3 1.6-4.4 5.7-2.4 8.8z m104.8 104.8c3.1 2 7.3 0.9 8.9-2.5 14.7-29.6 28.7-73.3 13.6-103.2-0.9-1.8-2.5-3-4.5-3.4-2-0.3-3.9 0.3-5.4 1.8L570 392.4c-1.2 1.3-1.8 2.8-1.8 4.5 0.1 7.8 41.9 36.8 50 42z m-303.1-12.3c14.5 4.1 29.8 10.2 45.2 18.3 2.9 1.5 6.4 0.5 8.1-2.2 11.6-18.7 26-37.4 42.8-55.4 2.3-2.4 2.2-6.2-0.1-8.6l-48.4-48.4c-2.5-2.6-6.7-2.4-9 0.3-22.6 26.1-36.9 56.8-42.9 88.8-0.7 3.3 1.2 6.4 4.3 7.2z m-7.6 20.7c-1.3 33.6 6.2 67 21.9 96.6 1 1.9 3.8 1.2 3.9-0.9 0.7-26.5 10.3-54 22.3-77.5 1.5-3 0.3-6.7-2.7-8.3-12.8-6.7-25.4-11.9-37.4-15.6-3.9-1.1-7.8 1.6-8 5.7z m100.9 175.5c29.8 15.7 63 23.3 96.6 21.9 4.1-0.2 6.9-4.1 5.7-8-3.7-12.1-8.9-24.6-15.6-37.5-1.6-3-5.3-4.2-8.3-2.7-23.5 11.9-51 21.6-77.5 22.3-2.1 0.2-2.8 3.1-0.9 4z m-25.5-164.7c17.6 11.2 35.1 24.8 52 40.7 2.4 2.3 6.2 2.2 8.6-0.2l39.3-39.3c2.4-2.4 2.4-6.4 0-8.8L430 397.7c-2.5-2.5-6.5-2.4-8.9 0.2-15.7 16.8-29.1 34.3-40 51.8-1.9 2.8-1 6.6 1.8 8.4z m70.6 59.3c15.8 16.9 29.4 34.4 40.7 52 1.8 2.9 5.6 3.7 8.5 1.9 17.4-10.9 34.9-24.3 51.8-40 2.6-2.4 2.6-6.4 0.2-8.9l-52.9-52.9c-2.4-2.4-6.3-2.4-8.8 0l-39.3 39.3c-2.4 2.3-2.5 6.1-0.2 8.6z m27.8 58.4c-10.5-16.2-23.1-32.3-37.6-48-2.4-2.6-6.4-2.6-8.9-0.2L374 588.4c-3 3-2.2 8 1.6 9.9 30 15.1 73.6 1 103.2-13.7 3.4-1.6 4.5-5.7 2.5-8.8z m-56.8-67.2c-15.6-14.5-31.8-27.1-48-37.6-3.1-2-7.3-0.9-8.9 2.4-14.7 29.7-28.7 73.3-13.6 103.2 1.9 3.8 6.9 4.6 9.9 1.6l60.8-60.8c2.4-2.4 2.4-6.4-0.2-8.8z" fill="#20433F" p-id="3514"></path></svg>