<?xml version="1.0" standalone="no"?><!DOCTYPE svg PUBLIC "-//W3C//DTD SVG 1.1//EN" "http://www.w3.org/Graphics/SVG/1.1/DTD/svg11.dtd"><svg t="1764666905888" class="icon" viewBox="0 0 1024 1024" version="1.1" xmlns="http://www.w3.org/2000/svg" p-id="1837" xmlns:xlink="http://www.w3.org/1999/xlink" width="200" height="200"><path d="M801.491904 724.451436c69.183429-70.810926 111.23204-171.005576 108.006637-281.586617-5.622263-191.896722-151.386836-351.125136-332.719622-362.96148C370.116358 66.350726 198.518965 239.427661 198.518965 454.849117c0 110.55145 45.244424 209.917556 117.179803 278.657122 17.606561 16.807608 16.985153 45.540332 0.443863 63.531575a122.121476 122.121476 0 0 0-31.780583 82.647269c0 65.573344 50.777915 119.221572 112.829946 119.221572h332.186986c62.140804 0 112.859537-53.648228 112.859538-119.221572a121.795977 121.795977 0 0 0-38.734435-89.601121 45.954604 45.954604 0 0 1-2.012179-65.632526z" fill="#56E5BE" p-id="1838"></path><path d="M850.612731 666.778851c69.183429-70.810926 34.295806-133.158867 31.070402-243.82868-5.622263-191.896722-49.180008-334.37671-230.542385-346.213054-206.692152-13.552614-378.319136 159.524322-378.319135 374.945778 0 110.55145 45.244424 209.917556 117.179802 278.657122 17.606561 16.807608 16.985153 45.510742 0.443863 63.531575a122.121476 122.121476 0 0 0-31.810173 82.647269c0 65.573344 50.777915 119.221572 112.829946 119.221572h332.275759c62.140804 0 5.444718-107.474001 5.444718-173.076935a121.648022 121.648022 0 0 0-38.704844-89.571531c-18.760605-17.310653 62.259168-48.025965 80.132047-66.313116z" fill="#50DDB8" p-id="1839"></path><path d="M789.122925 955.792773l17.103517-4.024356c0-35.656985 32.313218-135.703681 8.640531-157.571326-18.760605-17.281062-19.29324-80.368774-1.449952-98.655925 69.183429-70.810926 107.621955-86.760399 104.396551-197.34144-4.349856-149.137931 3.491721-245.959222-86.760399-311.384612a213.468459 213.468459 0 0 0-110.640223-40.62825C513.77998 132.63425 342.182587 305.711186 342.182587 521.103051c0 110.55145 45.214833 209.917556 117.179803 278.657122 17.606561 16.837199 16.955562 45.540332 0.443862 63.561165a122.121476 122.121476 0 0 0-31.810173 82.617679 124.281609 124.281609 0 0 0 10.534346 49.831007" fill="#42D3AD" p-id="1840"></path><path d="M708.043971 1023.999704H336.560324a151.150109 151.150109 0 0 1-108.746408-256.404795 24.205323 24.205323 0 0 0 6.953852-17.399426 18.849377 18.849377 0 0 0-6.273262-13.641386A422.823788 422.823788 0 0 1 538.93221 0.866154c215.24391 13.345478 389.090209 192.873221 395.718561 408.679357a424.066604 424.066604 0 0 1-128.424329 316.977285 21.127874 21.127874 0 0 0-6.598762 15.8607 22.518644 22.518644 0 0 0 7.871169 16.393336 151.150109 151.150109 0 0 1-99.454878 265.222872zM511.767801 50.31248A372.400964 372.400964 0 0 0 139.662746 422.890989a373.081554 373.081554 0 0 0 122.742884 276.260262 68.976293 68.976293 0 0 1 22.72578 49.505508 74.657738 74.657738 0 0 1-21.187055 54.003318 100.105877 100.105877 0 0 0-28.466407 69.9232 101.141557 101.141557 0 0 0 101.082376 100.964012h371.483647a100.786467 100.786467 0 0 0 66.313115-176.864566 73.266968 73.266968 0 0 1-25.122639-52.997229 71.018062 71.018062 0 0 1 21.897236-53.263546 373.436644 373.436644 0 0 0 113.155446-279.189758C878.368957 221.170101 725.354623 63.06614 535.82517 51.288978q-12.073071-0.976498-24.057369-0.976498z" fill="#2E3138" p-id="1841"></path><path d="M541.861705 614.787711a240.958367 240.958367 0 0 1-207.905377-119.990934 25.211412 25.211412 0 0 1 43.646517-25.241003 189.706999 189.706999 0 0 0 328.458538 0 25.211412 25.211412 0 1 1 43.616927 25.241003 240.928776 240.928776 0 0 1-207.816605 119.990934z" fill="#2E3138" p-id="1842"></path></svg>