<?xml version="1.0" standalone="no"?><!DOCTYPE svg PUBLIC "-//W3C//DTD SVG 1.1//EN" "http://www.w3.org/Graphics/SVG/1.1/DTD/svg11.dtd"><svg t="1764666958339" class="icon" viewBox="0 0 1024 1024" version="1.1" xmlns="http://www.w3.org/2000/svg" p-id="3208" xmlns:xlink="http://www.w3.org/1999/xlink" width="200" height="200"><path d="M841.1648 390.2464h-174.6944s83.6096-293.2224-87.04-297.472c-42.8544-1.0752-74.8544 35.2256-81.3056 92.8768C495.36 210.7904 491.52 250.88 475.8528 291.84A203.1104 203.1104 0 0 1 285.696 420.864h-97.28a80.0256 80.0256 0 0 0-80.2816 80.0256v346.624a80.0256 80.0256 0 0 0 80.0256 80.0768h583.2704c69.7344 0 91.0848-34.2016 105.3184-108.1856s52.6848-267.6224 59.8016-310.3232 1.4336-118.8352-95.3856-118.8352z" fill="#F9E230" p-id="3209"></path><path d="M825.9584 487.3728h-174.7456a635.4432 635.4432 0 0 0 17.8688-97.28h-2.6112s1.6384-5.8368 3.9424-15.36c6.0416-83.1488-7.5776-182.272-106.3936-184.7296-42.7008-1.0752-74.7008 35.2256-81.1008 92.8768C480.1024 307.9168 476.16 348.16 460.8 389.12a203.0592 203.0592 0 0 1-190.1056 129.024H134.1952a40.96 40.96 0 0 0-26.0608 9.216v320.256a80.0256 80.0256 0 0 0 80.0256 80.0768h583.2704c69.7344 0 91.0848-34.2016 105.3184-108.1856 10.24-52.1216 32.0512-163.4816 46.6944-239.7696-0.3072-41.8816-18.7392-92.3648-97.4848-92.3648z" fill="#F6DB2D" p-id="3210"></path><path d="M503.7056 927.5904h267.7248c69.7344 0 91.0848-34.2016 105.3184-108.1856 6.7584-35.072 18.8928-96.8704 30.72-156.8256-4.3008-38.1952-26.6752-78.08-96.6656-78.08h-174.848s83.6608-293.1712-87.04-297.472c-42.7008-1.0752-74.752 35.2256-81.152 92.8768C464.896 405.0432 460.8 445.44 445.44 486.4a203.0592 203.0592 0 0 1-190.1056 128.9728H118.9376a41.984 41.984 0 0 0-10.8032 1.4848v230.912a80.0256 80.0256 0 0 0 80.0256 80.0768h315.5456z" fill="#F5D228" p-id="3211"></path><path d="M795.4432 681.6256h-174.6944s83.6096-293.1712-87.04-297.472c-42.7008-1.0752-74.7008 35.2256-81.152 92.8768-2.7648 25.1392-6.656 65.4336-22.272 106.1888a203.1104 203.1104 0 0 1-190.1568 129.024H108.1344v135.2704a80.0256 80.0256 0 0 0 80.0256 80.0768h583.2704c69.7344 0 91.0848-34.2016 105.3184-108.1856 3.4304-17.7664 8.2432-42.496 13.6704-70.2976-7.168-34.6624-31.4368-67.4816-94.976-67.4816z" fill="#F2C824" p-id="3212"></path><path d="M503.7056 927.5904h267.7248c63.7952 0 87.04-28.7232 101.4784-90.3168-9.3696-31.1296-34.6624-58.4704-92.672-58.4704h-174.7456s83.6096-293.2224-87.04-297.5232c-42.7008-1.024-74.7008 35.2256-81.1008 92.8768-2.816 25.1392-6.656 65.4336-22.3232 106.1888a203.008 203.008 0 0 1-190.1056 129.024H108.1344v38.144a80.0256 80.0256 0 0 0 80.0256 80.0768h315.5456z" fill="#F0BF21" p-id="3213"></path><path d="M245.76 870.656a40.96 40.96 0 0 1-40.96-40.96v-307.2a40.96 40.96 0 0 1 81.92 0v307.2a40.96 40.96 0 0 1-40.96 40.96z" fill="#FFFFFF" p-id="3214"></path></svg>