<?xml version="1.0" standalone="no"?><!DOCTYPE svg PUBLIC "-//W3C//DTD SVG 1.1//EN" "http://www.w3.org/Graphics/SVG/1.1/DTD/svg11.dtd"><svg t="1764666976732" class="icon" viewBox="0 0 1024 1024" version="1.1" xmlns="http://www.w3.org/2000/svg" p-id="3979" xmlns:xlink="http://www.w3.org/1999/xlink" width="200" height="200"><path d="M871.877 339.827m-32 0a32 32 0 1 0 64 0 32 32 0 1 0-64 0Z" fill="#FFFFFF" p-id="3980"></path><path d="M871.877 297.828c-23.159 0-42 18.841-42 42 0 11.406 4.576 21.758 11.981 29.334-15.611 21.62-32.589 32.792-50.548 33.227-37.098 0.884-69-42.938-69.318-43.382-3.212-4.486-9.45-5.525-13.942-2.315-4.494 3.21-5.535 9.456-2.325 13.95 1.525 2.135 37.517 51.761 84.461 51.761 0.507 0 1.017-0.006 1.525-0.018 24.912-0.572 47.475-14.911 67.155-42.63a41.825 41.825 0 0 0 13.011 2.073c23.159 0 42-18.841 42-42s-18.841-42-42-42z m0 64c-12.131 0-22-9.869-22-22s9.869-22 22-22 22 9.869 22 22-9.869 22-22 22z" fill="#723703" p-id="3981"></path><path d="M552.749 842.995v50h98s-2-46-98-50z" fill="#FFC912" p-id="3982"></path><path d="M577.533 835.108l28.259-59.842c2.357-4.994 0.221-10.955-4.772-13.313-4.997-2.358-10.956-0.222-13.313 4.772l-31.373 66.437c-1.051-0.055-2.096-0.113-3.168-0.157a9.997 9.997 0 0 0-10.416 9.991v50c0 5.522 4.478 10 10 10h98a9.999 9.999 0 0 0 9.991-10.435c-0.091-2.061-3.043-46.583-83.208-57.453z m-14.784 47.888v-29.377c37.979 3.06 57.175 13.359 66.711 21.832 2.955 2.625 5.142 5.198 6.758 7.545h-73.469z" fill="#723703" p-id="3983"></path><path d="M372.634 837.994v50h-98s2-46 98-50z" fill="#FFC912" p-id="3984"></path><path d="M382.631 837.937v-70.941c0-5.522-4.478-10-10-10s-10 4.478-10 10v61.564c-94.61 7.084-97.893 56.819-97.987 59a9.997 9.997 0 0 0 9.991 10.435h98c5.522 0 10-4.478 10-10v-50c-0.001-0.02-0.004-0.039-0.004-0.058z m-93.459 40.058c7.237-10.468 25.855-25.567 73.459-29.38v0.381c0 0.02 0.003 0.038 0.003 0.058v28.941h-73.462z" fill="#723703" p-id="3985"></path><path d="M733.692 216.044v556c0 17.673-14.327 32-32 32h-510v-620h510c17.673 0 32 14.327 32 32z" fill="#AEE2FF" p-id="3986"></path><path d="M255.332 184.044h54.369v620h-54.369z" fill="#64D0FF" p-id="3987"></path><path d="M191.692 184.044h80v620h-80z" fill="#FFC912" p-id="3988"></path><path d="M191.692 184.044h40v620h-40z" fill="#FFB408" p-id="3989"></path><path d="M525.77 308.343l31.58 63.989a12.354 12.354 0 0 0 9.301 6.758l70.616 10.261c10.133 1.472 14.179 13.924 6.847 21.071l-51.098 49.808a12.354 12.354 0 0 0-3.553 10.935l12.063 70.33c1.731 10.092-8.862 17.788-17.924 13.023l-63.16-33.205a12.353 12.353 0 0 0-11.497 0l-63.161 33.205c-9.063 4.765-19.655-2.931-17.924-13.023l12.063-70.33a12.355 12.355 0 0 0-3.553-10.935l-51.098-49.808c-7.332-7.147-3.286-19.599 6.847-21.071l70.616-10.261a12.356 12.356 0 0 0 9.302-6.758l31.58-63.989c4.528-9.182 17.621-9.182 22.153 0z" fill="#FFC912" p-id="3990"></path><path d="M514.691 626.72c-37.189 0-72.315-8.678-98.906-24.436-28.375-16.814-44.001-39.784-44.001-64.677 0-22.81 13.421-44.388 37.79-60.76 4.98-3.347 11.732-2.021 15.08 2.961 3.347 4.981 2.021 11.733-2.961 15.08-18.17 12.206-28.177 27.378-28.177 42.719 0 36.523 55.491 67.38 121.175 67.38s121.176-30.856 121.176-67.38c0-14.535-9.095-29.073-25.609-40.937-4.874-3.501-5.987-10.291-2.485-15.165 3.5-4.876 10.291-5.989 15.165-2.485 22.353 16.057 34.662 36.863 34.662 58.587 0 24.893-15.626 47.862-44.001 64.677-26.591 15.758-61.717 24.436-98.908 24.436z" fill="#FFC912" p-id="3991"></path><path d="M479.921 471.165a12.355 12.355 0 0 0-3.553-10.935l-51.098-49.808c-7.332-7.147-3.286-19.599 6.847-21.071l70.616-10.261a12.352 12.352 0 0 0 9.301-6.758l22.658-45.911-8.922-18.078c-4.532-9.182-17.625-9.182-22.156 0l-31.58 63.989a12.354 12.354 0 0 1-9.301 6.758l-70.616 10.261c-10.133 1.472-14.179 13.924-6.847 21.071l51.098 49.808a12.356 12.356 0 0 1 3.553 10.935l-12.062 70.331c-1.731 10.092 8.861 17.788 17.924 13.022l21.914-11.521c0.027-0.495 0.074-0.994 0.162-1.502l12.062-70.33z" fill="#FFB408" p-id="3992"></path><path d="M291.091 534.716m-32 0a32 32 0 1 0 64 0 32 32 0 1 0-64 0Z" fill="#FFFFFF" p-id="3993"></path><path d="M291.092 492.716c-18.31 0-33.911 11.782-39.646 28.159-70.537-18.832-109.537-47.99-115.953-86.723-8.729-52.698 44.425-106.473 52.256-112.507a9.98 9.98 0 0 0 5.771-6.235c1.674-5.264-1.235-10.887-6.498-12.561-6.608-2.103-11.909 2.948-17.043 7.829-11.143 10.595-27.198 29.763-38.843 51.785-15.729 29.747-20.326 57.651-13.667 82.939 11.516 43.724 55.967 75.884 132.101 95.644 3.061 20.167 20.515 35.67 41.523 35.67 23.159 0 42-18.841 42-42s-18.842-42-42.001-42z m0 64c-12.131 0-22-9.869-22-22s9.869-22 22-22 22 9.869 22 22-9.87 22-22 22z" fill="#723703" p-id="3994"></path><path d="M391.725 190.433m-60 0a60 60 0 1 0 120 0 60 60 0 1 0-120 0Z" fill="#FFFFFF" p-id="3995"></path><path d="M391.725 260.433c-38.598 0-70-31.402-70-70s31.402-70 70-70 70 31.402 70 70-31.402 70-70 70z m0-120c-27.57 0-50 22.43-50 50s22.43 50 50 50 50-22.43 50-50-22.429-50-50-50z" fill="#723703" p-id="3996"></path><path d="M391.725 190.433m-16 0a16 16 0 1 0 32 0 16 16 0 1 0-32 0Z" fill="#723703" p-id="3997"></path><path d="M616.74 190.433m-60 0a60 60 0 1 0 120 0 60 60 0 1 0-120 0Z" fill="#FFFFFF" p-id="3998"></path><path d="M616.74 260.433c-38.598 0-70-31.402-70-70s31.402-70 70-70 70 31.402 70 70-31.402 70-70 70z m0-120c-27.57 0-50 22.43-50 50s22.43 50 50 50 50-22.43 50-50-22.43-50-50-50z" fill="#723703" p-id="3999"></path><path d="M616.74 190.433m-16 0a16 16 0 1 0 32 0 16 16 0 1 0-32 0Z" fill="#723703" p-id="4000"></path><path d="M682.498 698.848h-0.013a8 8 0 0 1-7.987-8.013l0.141-88a8 8 0 0 1 8-7.987h0.013a8 8 0 0 1 7.987 8.013l-0.141 88a8 8 0 0 1-8 7.987zM682.499 753.858h-0.058a8 8 0 0 1-7.943-8.057l0.141-20c0.031-4.418 3.629-7.941 8.057-7.943a8 8 0 0 1 7.943 8.057l-0.141 20a8.001 8.001 0 0 1-7.999 7.943z" fill="#FFFFFF" p-id="4001"></path></svg>