<?xml version="1.0" standalone="no"?><!DOCTYPE svg PUBLIC "-//W3C//DTD SVG 1.1//EN" "http://www.w3.org/Graphics/SVG/1.1/DTD/svg11.dtd"><svg t="1764666984003" class="icon" viewBox="0 0 1024 1024" version="1.1" xmlns="http://www.w3.org/2000/svg" p-id="4465" xmlns:xlink="http://www.w3.org/1999/xlink" width="200" height="200"><path d="M512 512m-512 0a512 512 0 1 0 1024 0 512 512 0 1 0-1024 0Z" fill="#FFDA44" p-id="4466"></path><path d="M787.287296 734.270085l-31.079055 31.079054a14.566936 14.566936 0 0 1-20.621867 0l-31.079054-31.079054a14.625437 14.625437 0 0 1 20.694994-20.621867l6.069556 5.99643V573.755909a241.319717 241.319717 0 0 1-409.512247 0V694.708277h14.625437a43.876312 43.876312 0 0 1 43.876313 43.876312v65.814468a43.876312 43.876312 0 0 1-43.876313 43.876313h-65.814468a43.876312 43.876312 0 0 1-43.876312-43.876313v-65.814468a43.876312 43.876312 0 0 1 43.876312-43.876312h21.938156V505.162608a241.319717 241.319717 0 1 1 468.013997 0v214.48204l6.069557-5.99643a14.625437 14.625437 0 0 1 20.694994 20.621867z" fill="#FFFFFF" p-id="4467"></path><path d="M526.515747 277.883311a168.19253 168.19253 0 1 1-168.192531 168.19253 168.19253 168.19253 0 0 1 168.192531-168.19253z m0 14.625437a153.567093 153.567093 0 1 1-153.567093 153.567093 153.567093 153.567093 0 0 1 153.567093-153.567093z" fill="#32C4EE" p-id="4468"></path><path d="M526.515747 446.075841m-87.752625 0a87.752624 87.752624 0 1 0 175.505249 0 87.752624 87.752624 0 1 0-175.505249 0Z" fill="#32C4EE" p-id="4469"></path><path d="M255.945155 723.959152l95.065343 0 0 95.065343-95.065343 0 0-95.065343Z" fill="#FF8F44" p-id="4470"></path></svg>